<?xml version="1.0" encoding="UTF-8"?><svg id="Layer_1" xmlns="http://www.w3.org/2000/svg" viewBox="0 0 512 512"><path fill="#39FF14" d="M511.67,250.23v-17.88h-131.95v-122.29c0-20.11-16.36-36.47-36.47-36.47s-37.82,16.7-37.82,36.47v290.27c0,11.52-8.11,20.21-18.86,20.21s-20.2-9.07-20.2-20.21v-233.25c0-20.88-16.99-37.87-37.87-37.87s-37.87,16.99-37.87,37.87v163.36c0,10.71-8.72,19.42-19.42,19.42s-19.42-8.71-19.42-19.42v-86.61c0-27.13-22.23-37.12-37.22-37.22-20.52,0-37.22,16.7-37.22,37.22v72.89h17.88v-72.89c0-10.66,8.68-19.34,19.22-19.34,3.25.07,19.46,1.32,19.46,19.34v86.61c0,20.57,16.74,37.3,37.31,37.3s37.3-16.74,37.3-37.3v-163.36c0-11.02,8.97-19.99,19.99-19.99s19.99,8.97,19.99,19.99v233.25c0,21,17.08,38.09,38.09,38.09s36.73-16.73,36.73-38.09V110.06c0-9.9,9.32-18.59,19.94-18.59s18.59,8.34,18.59,18.59v140.17h149.83Z"/><rect fill="#39FF14" x="363.65" y="293.22" width="148.02" height="17.88"/></svg>